<svg xmlns="http://www.w3.org/2000/svg" viewBox="0 0 200 200" fill="none">
  <!-- Building / Arabic سعود calligraphic icon in gold -->
  <!-- Main building tower -->
  <rect x="90" y="60" width="22" height="70" rx="2" fill="#C9A84C"/>
  <!-- Side towers -->
  <rect x="68" y="80" width="16" height="50" rx="2" fill="#C9A84C"/>
  <rect x="118" y="75" width="16" height="55" rx="2" fill="#C9A84C"/>
  <!-- Tower tops / pinnacles -->
  <polygon points="101,45 88,62 114,62" fill="#C9A84C"/>
  <polygon points="76,67 66,82 86,82" fill="#C9A84C"/>
  <polygon points="126,62 116,77 136,77" fill="#C9A84C"/>
  <!-- Windows -->
  <rect x="95" y="75" width="5" height="7" rx="1" fill="white" opacity="0.6"/>
  <rect x="102" y="75" width="5" height="7" rx="1" fill="white" opacity="0.6"/>
  <rect x="95" y="88" width="5" height="7" rx="1" fill="white" opacity="0.6"/>
  <rect x="102" y="88" width="5" height="7" rx="1" fill="white" opacity="0.6"/>
  <rect x="95" y="101" width="5" height="7" rx="1" fill="white" opacity="0.6"/>
  <rect x="102" y="101" width="5" height="7" rx="1" fill="white" opacity="0.6"/>
  <!-- Side windows -->
  <rect x="72" y="90" width="4" height="5" rx="1" fill="white" opacity="0.5"/>
  <rect x="78" y="90" width="4" height="5" rx="1" fill="white" opacity="0.5"/>
  <rect x="72" y="100" width="4" height="5" rx="1" fill="white" opacity="0.5"/>
  <rect x="78" y="100" width="4" height="5" rx="1" fill="white" opacity="0.5"/>
  <rect x="122" y="85" width="4" height="5" rx="1" fill="white" opacity="0.5"/>
  <rect x="128" y="85" width="4" height="5" rx="1" fill="white" opacity="0.5"/>
  <rect x="122" y="96" width="4" height="5" rx="1" fill="white" opacity="0.5"/>
  <rect x="128" y="96" width="4" height="5" rx="1" fill="white" opacity="0.5"/>
  <!-- Base line -->
  <rect x="60" y="130" width="82" height="4" rx="2" fill="#C9A84C"/>
</svg>
